<svg width="16" height="17" viewBox="0 0 16 17" fill="none" xmlns="http://www.w3.org/2000/svg">
<path d="M8 0.5C12.42 0.5 16 4.17055 16 8.70235C15.9996 10.421 15.4735 12.0961 14.4958 13.4921C13.5182 14.8881 12.1381 15.9346 10.55 16.4843C10.15 16.5664 10 16.31 10 16.0947C10 15.8179 10.01 14.9361 10.01 13.8391C10.01 13.0701 9.76 12.578 9.47 12.3216C11.25 12.1166 13.12 11.4194 13.12 8.27173C13.12 7.36947 12.81 6.64151 12.3 6.06735C12.38 5.86229 12.66 5.02155 12.22 3.89372C12.22 3.89372 11.55 3.66816 10.02 4.73446C9.38 4.54991 8.7 4.45763 8.02 4.45763C7.34 4.45763 6.66 4.54991 6.02 4.73446C4.49 3.67841 3.82 3.89372 3.82 3.89372C3.38 5.02155 3.66 5.86229 3.74 6.06735C3.23 6.64151 2.92 7.37972 2.92 8.27173C2.92 11.4091 4.78 12.1166 6.56 12.3216C6.33 12.5267 6.12 12.8855 6.05 13.4187C5.59 13.634 4.44 13.9826 3.72 12.742C3.57 12.4959 3.12 11.891 2.49 11.9013C1.82 11.9115 2.22 12.2909 2.5 12.4447C2.84 12.6395 3.23 13.3674 3.32 13.6033C3.48 14.0646 4 14.9464 6.01 14.567C6.01 15.254 6.02 15.8999 6.02 16.0947C6.02 16.31 5.87 16.5561 5.47 16.4843C3.87664 15.9406 2.49073 14.8962 1.50889 13.4993C0.527047 12.1025 -0.000880479 10.4241 1.10231e-06 8.70235C1.10231e-06 4.17055 3.58 0.5 8 0.5Z" fill="black"/>
</svg>
